<svg width="65" height="12" viewBox="0 0 65 12" fill="none" xmlns="http://www.w3.org/2000/svg">
<path d="M0.314941 1.74219V0.0869141H9.01611V1.74219H5.64697V11H3.69141V1.74219H0.314941ZM12.4365 11.1611C11.6357 11.1611 10.9424 10.9854 10.3564 10.6338C9.77051 10.2822 9.31641 9.78906 8.99414 9.1543C8.67676 8.51953 8.51807 7.78223 8.51807 6.94238C8.51807 6.09766 8.67676 5.35791 8.99414 4.72314C9.31641 4.0835 9.77051 3.58789 10.3564 3.23633C10.9424 2.88477 11.6357 2.70898 12.4365 2.70898C13.2373 2.70898 13.9307 2.88477 14.5166 3.23633C15.1025 3.58789 15.5566 4.0835 15.8789 4.72314C16.2012 5.35791 16.3623 6.09766 16.3623 6.94238C16.3623 7.78223 16.2012 8.51953 15.8789 9.1543C15.5566 9.78906 15.1025 10.2822 14.5166 10.6338C13.9307 10.9854 13.2373 11.1611 12.4365 11.1611ZM12.4365 9.6084C12.8809 9.6084 13.2471 9.49121 13.5352 9.25684C13.8232 9.01758 14.0381 8.69531 14.1797 8.29004C14.3262 7.88477 14.3994 7.43555 14.3994 6.94238C14.3994 6.43945 14.3262 5.98535 14.1797 5.58008C14.0381 5.1748 13.8232 4.85498 13.5352 4.62061C13.2471 4.38135 12.8809 4.26172 12.4365 4.26172C12.002 4.26172 11.6382 4.38135 11.3452 4.62061C11.0522 4.85498 10.8325 5.1748 10.686 5.58008C10.5444 5.98535 10.4736 6.43945 10.4736 6.94238C10.4736 7.43555 10.5444 7.88477 10.686 8.29004C10.8325 8.69531 11.0522 9.01758 11.3452 9.25684C11.6382 9.49121 12.002 9.6084 12.4365 9.6084ZM17.4243 11V2.81152H24.3384V11H22.4707V4.39355H19.2627V11H17.4243ZM32.6953 11.1465C31.9824 11.1465 31.3452 11.0146 30.7837 10.751C30.2271 10.4824 29.7827 10.1138 29.4507 9.64502C29.1235 9.17627 28.9502 8.63916 28.9307 8.03369H30.8496C30.8789 8.47803 31.0693 8.8418 31.4209 9.125C31.7773 9.4082 32.2021 9.5498 32.6953 9.5498C33.0859 9.5498 33.4302 9.46191 33.728 9.28613C34.0259 9.10547 34.2603 8.85889 34.4312 8.54639C34.6069 8.229 34.6948 7.86768 34.6948 7.4624C34.6948 7.04736 34.6069 6.68115 34.4312 6.36377C34.2554 6.0415 34.0137 5.79004 33.7061 5.60938C33.3984 5.42383 33.0444 5.33105 32.644 5.33105C32.312 5.33105 31.9897 5.39453 31.6772 5.52148C31.3647 5.64355 31.1157 5.80469 30.9302 6.00488L29.1357 5.71191L29.707 0.0869141H36.0425V1.74219H31.3477L31.0327 4.63525H31.0913C31.2964 4.39111 31.582 4.19336 31.9482 4.04199C32.3193 3.88574 32.7271 3.80762 33.1714 3.80762C33.8354 3.80762 34.4238 3.96387 34.9365 4.27637C35.4541 4.58398 35.8618 5.00879 36.1597 5.55078C36.4575 6.09277 36.6064 6.71533 36.6064 7.41846C36.6064 8.13623 36.4404 8.77832 36.1084 9.34473C35.7764 9.90625 35.3174 10.3481 34.7314 10.6704C34.1455 10.9878 33.4668 11.1465 32.6953 11.1465Z" fill="white"/>
<path opacity="0.2" d="M43.791 0.0869141H45.7686V7.521H45.8638L50.998 0.0869141H52.7705V11H50.793V3.56592H50.6904L45.5562 11H43.791V0.0869141ZM54.3525 0.0869141H56.3301V7.521H56.4253L61.5596 0.0869141H63.332V11H61.3545V3.56592H61.252L56.1177 11H54.3525V0.0869141Z" fill="white"/>
</svg>
