<svg width="65" height="18" viewBox="0 0 65 18" fill="none" xmlns="http://www.w3.org/2000/svg">
<path d="M0.314941 4.74219V3.08691H9.01611V4.74219H5.64697V14H3.69141V4.74219H0.314941ZM12.4365 14.1611C11.6357 14.1611 10.9424 13.9854 10.3564 13.6338C9.77051 13.2822 9.31641 12.7891 8.99414 12.1543C8.67676 11.5195 8.51807 10.7822 8.51807 9.94238C8.51807 9.09766 8.67676 8.35791 8.99414 7.72314C9.31641 7.0835 9.77051 6.58789 10.3564 6.23633C10.9424 5.88477 11.6357 5.70898 12.4365 5.70898C13.2373 5.70898 13.9307 5.88477 14.5166 6.23633C15.1025 6.58789 15.5566 7.0835 15.8789 7.72314C16.2012 8.35791 16.3623 9.09766 16.3623 9.94238C16.3623 10.7822 16.2012 11.5195 15.8789 12.1543C15.5566 12.7891 15.1025 13.2822 14.5166 13.6338C13.9307 13.9854 13.2373 14.1611 12.4365 14.1611ZM12.4365 12.6084C12.8809 12.6084 13.2471 12.4912 13.5352 12.2568C13.8232 12.0176 14.0381 11.6953 14.1797 11.29C14.3262 10.8848 14.3994 10.4355 14.3994 9.94238C14.3994 9.43945 14.3262 8.98535 14.1797 8.58008C14.0381 8.1748 13.8232 7.85498 13.5352 7.62061C13.2471 7.38135 12.8809 7.26172 12.4365 7.26172C12.002 7.26172 11.6382 7.38135 11.3452 7.62061C11.0522 7.85498 10.8325 8.1748 10.686 8.58008C10.5444 8.98535 10.4736 9.43945 10.4736 9.94238C10.4736 10.4355 10.5444 10.8848 10.686 11.29C10.8325 11.6953 11.0522 12.0176 11.3452 12.2568C11.6382 12.4912 12.002 12.6084 12.4365 12.6084ZM17.4243 14V5.81152H24.3384V14H22.4707V7.39355H19.2627V14H17.4243ZM32.6953 14.1465C31.9824 14.1465 31.3452 14.0146 30.7837 13.751C30.2271 13.4824 29.7827 13.1138 29.4507 12.645C29.1235 12.1763 28.9502 11.6392 28.9307 11.0337H30.8496C30.8789 11.478 31.0693 11.8418 31.4209 12.125C31.7773 12.4082 32.2021 12.5498 32.6953 12.5498C33.0859 12.5498 33.4302 12.4619 33.728 12.2861C34.0259 12.1055 34.2603 11.8589 34.4312 11.5464C34.6069 11.229 34.6948 10.8677 34.6948 10.4624C34.6948 10.0474 34.6069 9.68115 34.4312 9.36377C34.2554 9.0415 34.0137 8.79004 33.7061 8.60938C33.3984 8.42383 33.0444 8.33105 32.644 8.33105C32.312 8.33105 31.9897 8.39453 31.6772 8.52148C31.3647 8.64355 31.1157 8.80469 30.9302 9.00488L29.1357 8.71191L29.707 3.08691H36.0425V4.74219H31.3477L31.0327 7.63525H31.0913C31.2964 7.39111 31.582 7.19336 31.9482 7.04199C32.3193 6.88574 32.7271 6.80762 33.1714 6.80762C33.8354 6.80762 34.4238 6.96387 34.9365 7.27637C35.4541 7.58398 35.8618 8.00879 36.1597 8.55078C36.4575 9.09277 36.6064 9.71533 36.6064 10.4185C36.6064 11.1362 36.4404 11.7783 36.1084 12.3447C35.7764 12.9062 35.3174 13.3481 34.7314 13.6704C34.1455 13.9878 33.4668 14.1465 32.6953 14.1465Z" fill="black"/>
<path opacity="0.2" d="M43.791 3.08691H45.7686V10.521H45.8638L50.998 3.08691H52.7705V14H50.793V6.56592H50.6904L45.5562 14H43.791V3.08691ZM54.3525 3.08691H56.3301V10.521H56.4253L61.5596 3.08691H63.332V14H61.3545V6.56592H61.252L56.1177 14H54.3525V3.08691Z" fill="black"/>
</svg>
